<svg xmlns="http://www.w3.org/2000/svg">
  <defs>
    <symbol id="icon-calender" viewBox="0 -960 960 960">
        <path d="M200-80q-33 0-56.5-23.5T120-160v-560q0-33 23.5-56.5T200-800h40v-80h80v80h320v-80h80v80h40q33 0 56.5 23.5T840-720v560q0 33-23.5 56.5T760-80H200Zm0-80h560v-400H200v400Zm0-480h560v-80H200v80Zm0 0v-80 80Zm280 240q-17 0-28.5-11.5T440-440q0-17 11.5-28.5T480-480q17 0 28.5 11.5T520-440q0 17-11.5 28.5T480-400Zm-160 0q-17 0-28.5-11.5T280-440q0-17 11.5-28.5T320-480q17 0 28.5 11.5T360-440q0 17-11.5 28.5T320-400Zm320 0q-17 0-28.5-11.5T600-440q0-17 11.5-28.5T640-480q17 0 28.5 11.5T680-440q0 17-11.5 28.5T640-400ZM480-240q-17 0-28.5-11.5T440-280q0-17 11.5-28.5T480-320q17 0 28.5 11.5T520-280q0 17-11.5 28.5T480-240Zm-160 0q-17 0-28.5-11.5T280-280q0-17 11.5-28.5T320-320q17 0 28.5 11.5T360-280q0 17-11.5 28.5T320-240Zm320 0q-17 0-28.5-11.5T600-280q0-17 11.5-28.5T640-320q17 0 28.5 11.5T680-280q0 17-11.5 28.5T640-240Z"/>
    </symbol>
    <symbol id="icon-chat" viewBox="0 -960 960 960">
        <path d="M240-400h320v-80H240v80Zm0-120h480v-80H240v80Zm0-120h480v-80H240v80ZM80-80v-720q0-33 23.5-56.5T160-880h640q33 0 56.5 23.5T880-800v480q0 33-23.5 56.5T800-240H240L80-80Zm126-240h594v-480H160v525l46-45Zm-46 0v-480 480Z"/>
    </symbol>
    <symbol id="icon-group" viewBox="0 -960 960 960">
        <path d="M0-240v-63q0-43 44-70t116-27q13 0 25 .5t23 2.5q-14 21-21 44t-7 48v65H0Zm240 0v-65q0-32 17.5-58.5T307-410q32-20 76.5-30t96.5-10q53 0 97.5 10t76.5 30q32 20 49 46.5t17 58.5v65H240Zm540 0v-65q0-26-6.5-49T754-397q11-2 22.5-2.5t23.5-.5q72 0 116 26.5t44 70.5v63H780Zm-455-80h311q-10-20-55.5-35T480-370q-55 0-100.5 15T325-320ZM160-440q-33 0-56.5-23.5T80-520q0-34 23.5-57t56.5-23q34 0 57 23t23 57q0 33-23 56.5T160-440Zm640 0q-33 0-56.5-23.5T720-520q0-34 23.5-57t56.5-23q34 0 57 23t23 57q0 33-23 56.5T800-440Zm-320-40q-50 0-85-35t-35-85q0-51 35-85.5t85-34.5q51 0 85.5 34.5T600-600q0 50-34.5 85T480-480Zm0-80q17 0 28.5-11.5T520-600q0-17-11.5-28.5T480-640q-17 0-28.5 11.5T440-600q0 17 11.5 28.5T480-560Zm1 240Zm-1-280Z"/>
    </symbol>
    <symbol id="icon-unity" viewBox="0 -960 960 960">
        <path d="M640-280q83 0 141.5-58.5T840-480q0-83-58.5-141.5T640-680q-27 0-52.5 7T540-653q29 36 44.5 80t15.5 93q0 49-15.5 93T540-307q22 13 47.5 20t52.5 7Zm-160-80q19-25 29.5-55.5T520-480q0-34-10.5-64.5T480-600q-19 25-29.5 55.5T440-480q0 34 10.5 64.5T480-360Zm-160 80q27 0 52.5-7t47.5-20q-29-36-44.5-80T360-480q0-49 15.5-93t44.5-80q-22-13-47.5-20t-52.5-7q-83 0-141.5 58.5T120-480q0 83 58.5 141.5T320-280Zm0 80q-117 0-198.5-81.5T40-480q0-117 81.5-198.5T320-760q45 0 85.5 13t74.5 37q34-24 74.5-37t85.5-13q117 0 198.5 81.5T920-480q0 117-81.5 198.5T640-200q-45 0-85.5-13T480-250q-34 24-74.5 37T320-200Z"/>
    </symbol>
  </defs>
</svg>